<?xml version="1.0" encoding="utf-8"?>
<!-- Svg Vector Icons : http://www.onlinewebfonts.com/icon -->
<!DOCTYPE svg PUBLIC "-//W3C//DTD SVG 1.1//EN" "http://www.w3.org/Graphics/SVG/1.1/DTD/svg11.dtd">
<svg version="1.1" xmlns="http://www.w3.org/2000/svg" xmlns:xlink="http://www.w3.org/1999/xlink" x="0px" y="0px" viewBox="0 0 1000 1000" enable-background="new 0 0 1000 1000" xml:space="preserve">
<metadata> Svg Vector Icons : http://www.onlinewebfonts.com/icon </metadata>
<g><g transform="translate(0.000000,511.000000) scale(0.100000,-0.100000)"><path d="M7449.1,4984.5c-215.8-35.5-428.7-112.3-688.8-245.4c-204-106.4-310.4-195.1-792.3-671.1c-307.5-301.6-570.6-570.6-588.3-603.1c-44.3-82.8-35.5-239.5,20.7-322.2c65-103.5,215.8-150.8,328.2-109.4c47.3,17.7,331.1,274.9,632.6,570.6c573.6,564.7,700.7,656.3,1037.7,745c209.9,56.2,561.7,56.2,780.5,0c257.2-68,449.4-183.3,668.1-399.1c328.2-325.2,458.2-674,434.6-1153c-17.7-289.7-88.7-517.4-239.5-745c-59.1-85.7-742.1-789.3-1519.6-1563.9C6183.8-845.5,6098.1-925.3,5888.2-1028.8c-520.3-251.3-1141.2-198.1-1552.1,130.1c-239.5,192.2-319.3,236.5-422.8,236.5c-147.8,0-272-136-272-292.7c0-103.5,20.7-144.9,121.2-254.3c165.6-177.4,490.8-375.5,780.5-476c307.5-103.5,836.6-133,1147.1-59.1c266.1,62.1,585.4,212.9,804.1,381.4c97.6,73.9,810.1,771.6,1581.7,1549.2c999.2,1005.2,1433.8,1463.4,1504.8,1581.7c517.4,886.9,399.1,1909.8-304.5,2613.4C8788.4,4869.2,8102.5,5093.9,7449.1,4984.5z"/><path d="M4303.6,1954.2c-242.4-53.2-576.5-212.9-795.3-378.4c-97.6-73.9-816-777.5-1599.4-1563.9C563.7-1342.2,481-1427.9,368.6-1652.6C70-2235,22.7-2781.9,214.9-3364.3C410-3946.7,951-4487.8,1542.3-4682.9c594.2-198.1,1226.9-124.2,1797.5,209.9c162.6,97.6,1218,1099.8,1283.1,1221c44.3,82.8,35.5,239.5-20.7,322.2c-65,103.5-215.8,150.8-328.2,109.4c-47.3-17.7-331.1-274.9-632.7-570.6c-573.5-564.7-700.7-656.3-1037.7-745c-209.9-56.2-561.7-56.2-780.5,0c-257.2,68-449.4,183.3-668.1,399.1c-328.2,325.2-458.2,674.1-434.6,1153c17.7,292.7,88.7,517.4,239.5,745c59.1,85.7,742.1,789.4,1519.6,1563.9c1339.2,1336.3,1425,1413.1,1634.9,1516.6c520.3,251.3,1141.2,198.1,1552.1-130.1c277.9-221.7,316.3-239.5,443.5-224.7c251.3,29.6,337,301.6,159.7,502.6c-206.9,236.5-591.3,455.3-963.8,552.9C5039.7,2007.4,4581.5,2016.3,4303.6,1954.2z"/></g></g>
</svg>